<?xml version="1.0" encoding="UTF-8" standalone="no"?>
<!DOCTYPE svg PUBLIC "-//W3C//DTD SVG 1.1//EN" "http://www.w3.org/Graphics/SVG/1.1/DTD/svg11.dtd">
<svg version="1.1" xmlns="http://www.w3.org/2000/svg" xmlns:xlink="http://www.w3.org/1999/xlink" preserveAspectRatio="xMidYMid meet" viewBox="0 0 640 640" width="640" height="640"><defs><path d="M320 324.6L77.47 242.99L316.55 162.53L561.38 245.29L320 324.6Z" id="h6oRth4EGH"></path><path d="M147.59 386.67L155.63 395.86L155.63 468.28L125.75 468.28L125.75 395.86L132.64 386.67L132.64 274.02L147.59 277.47L147.59 386.67Z" id="ekyrgITMa"></path><path d="M318.85 397.15C367.7 397.15 416.93 383.09 466.55 354.99C466.4 350.59 465.63 328.58 464.25 288.97L318.85 338.39L173.45 292.41L173.45 354.99C237.82 383.1 286.28 397.15 318.85 397.15Z" id="igghPxwQT"></path><path d="" id="d2GtUsJ3X7"></path><path d="M133.34 397.15L133.34 468.28" id="d1k09rTqSP"></path><path d="M140.69 397.15L140.69 468.28" id="bzU7rePOA"></path><path d="" id="add828xRw"></path><path d="M147.59 397.15L147.59 468.28" id="i2MHJqBmZf"></path><path d="M129.15 397.15L129.15 468.28" id="k1PxpPaQbw"></path><path d="M151.47 397.15L151.47 468.28" id="e1r7R8Becl"></path><path d="M144.17 397.15L144.17 468.28" id="aonqX7Cce"></path><path d="M137.21 397.15L137.21 468.28" id="a7HDerUUr"></path></defs><g><g><g><use xlink:href="#h6oRth4EGH" opacity="1" fill="#000000" fill-opacity="0"></use><g><use xlink:href="#h6oRth4EGH" opacity="1" fill-opacity="0" stroke="#000000" stroke-width="1" stroke-opacity="1"></use></g></g><g><use xlink:href="#ekyrgITMa" opacity="1" fill="#000000" fill-opacity="0"></use><g><use xlink:href="#ekyrgITMa" opacity="1" fill-opacity="0" stroke="#000000" stroke-width="1" stroke-opacity="1"></use></g></g><g><use xlink:href="#igghPxwQT" opacity="1" fill="#000000" fill-opacity="0"></use><g><use xlink:href="#igghPxwQT" opacity="1" fill-opacity="0" stroke="#000000" stroke-width="1" stroke-opacity="1"></use></g></g><g><g><use xlink:href="#d2GtUsJ3X7" opacity="1" fill-opacity="0" stroke="#000000" stroke-width="1" stroke-opacity="1"></use></g></g><g><g><use xlink:href="#d1k09rTqSP" opacity="1" fill-opacity="0" stroke="#000000" stroke-width="1" stroke-opacity="1"></use></g></g><g><g><use xlink:href="#bzU7rePOA" opacity="1" fill-opacity="0" stroke="#000000" stroke-width="1" stroke-opacity="1"></use></g></g><g><g><use xlink:href="#add828xRw" opacity="1" fill-opacity="0" stroke="#000000" stroke-width="1" stroke-opacity="1"></use></g></g><g><g><use xlink:href="#i2MHJqBmZf" opacity="1" fill-opacity="0" stroke="#000000" stroke-width="1" stroke-opacity="1"></use></g></g><g><g><use xlink:href="#k1PxpPaQbw" opacity="1" fill-opacity="0" stroke="#000000" stroke-width="1" stroke-opacity="1"></use></g></g><g><g><use xlink:href="#e1r7R8Becl" opacity="1" fill-opacity="0" stroke="#000000" stroke-width="1" stroke-opacity="1"></use></g></g><g><g><use xlink:href="#aonqX7Cce" opacity="1" fill-opacity="0" stroke="#000000" stroke-width="1" stroke-opacity="1"></use></g></g><g><g><use xlink:href="#a7HDerUUr" opacity="1" fill-opacity="0" stroke="#000000" stroke-width="1" stroke-opacity="1"></use></g></g></g></g></svg>